<svg width="24" height="24" viewBox="0 0 24 24" fill="none" xmlns="http://www.w3.org/2000/svg">
<g clip-path="url(#clip0_242_333)">
<path d="M3 3H5L5.4 5M7 13H17L21 5H5.4M7 13L5.4 5M7 13L4.707 15.293C4.077 15.923 4.523 17 5.414 17H17M17 17C15.8962 17 15 17.8962 15 19C15 20.1038 15.8962 21 17 21C18.1038 21 19 20.1038 19 19C19 17.8962 18.1038 17 17 17L3 3M-5 5C-5 6.10383 -5.89617 7 -7 7C-8.10383 7 -9 6.10383 -9 5C-9 3.89617 -8.10383 3 -7 3C-5.89617 3 -5 3.89617 -5 5V5" stroke="#374151" stroke-width="2" stroke-linecap="round" stroke-linejoin="round"/>
</g>
<defs>
<clipPath id="clip0_242_333">
<rect width="24" height="24" fill="white"/>
</clipPath>
</defs>
</svg>
