<svg version="1.0" xmlns="http://www.w3.org/2000/svg" width="800.000000" height="800.000000" viewBox="0 0 800.000000 800.000000" preserveAspectRatio="xMidYMid meet">
  <metadata>
    <rdf:RDF xmlns:rdf="http://www.w3.org/1999/02/22-rdf-syntax-ns#" xmlns:rdfs="http://www.w3.org/2000/01/rdf-schema#" xmlns:dc="http://purl.org/dc/elements/1.1/">
      <rdf:Description dc:format="image/svg+xml" dc:Label="1" dc:ContentProducer="001191330110MACRLGPT8B00000" dc:ProduceID="420429086" dc:ReservedCode1="445p0O3jhuqyZgg5C/Mboz4P+voG0Xu0H9vlFmSS6QM=" dc:ContentPropagator="001191330110MACRLGPT8B00000" dc:PropagateID="420429086" dc:ReservedCode2="445p0O3jhuqyZgg5C/Mboz4P+voG0Xu0H9vlFmSS6QM="/>
    </rdf:RDF>
  </metadata>
  <g transform="translate(31.615488,795.440704) scale(0.097559,-0.097559)" fill="#000000" stroke="none">
    <path d="M3612 6199 c-80 -14 -198 -56 -282 -100 -41 -22 -196 -127 -345 -234 -148 -107 -306 -221 -350 -252 -198 -140 -548 -393 -632 -455 -207 -155 -315 -322 -358 -553 -23 -118 -19 -177 49 -830 149 -1422 138 -1344 213 -1493 80 -157 216 -281 380 -343 l88 -34 1370 -3 c1533 -3 1444 -7 1593 68 148 75 251 181 327 337 47 97 60 157 89 443 184 1763 183 1753 146 1906 -23 100 -55 173 -113 261 -92 142 -72 125 -647 533 -173 123 -448 318 -610 433 -396 282 -469 315 -725 322 -77 2 -164 0 -193 -6z m288 -193 c157 -29 190 -49 712 -422 139 -99 401 -285 581 -414 185 -131 346 -253 369 -279 69 -78 125 -185 148 -281 26 -111 25 -137 -5 -426 -27 -264 -126 -1237 -150 -1489 -9 -88 -23 -185 -31 -214 -48 -169 -169 -303 -322 -357 l-67 -24 -1351 0 c-1498 0 -1399 -4 -1516 66 -99 60 -189 177 -226 294 -16 48 -26 126 -62 470 -17 162 -46 444 -65 625 -95 908 -98 947 -69 1059 23 92 77 193 141 265 60 67 106 103 448 347 116 83 309 222 430 309 433 312 552 392 632 425 135 56 264 71 403 46z"/>
    <path d="M2663 3348 c-12 -6 -29 -26 -39 -46 -22 -46 -9 -89 36 -119 l33 -23 1100 2 1099 3 24 28 c32 37 39 71 24 108 -26 62 37 59 -1162 58 -749 0 -1100 -4 -1115 -11z"/>
  </g>
</svg>